# xmcd CD database file
#
# Track frame offsets:
#	150
#	29273
#	63219
#	103766
#	136122
#	167885
#	200087
#	238767
#	268067
#
# Disc length: 3946 seconds
#
# Revision: 0
# Processed by: cddbd v1.5.1PL0 Copyright (c) Steve Scherf et al.
# Submitted via: CDex 1.51
#
DISCID=7f0f6809
DTITLE=The Mort Weiss Trio - The Three of Us
DYEAR=2004
DGENRE=Jazz
TTITLE0=Look For The Silver Lining
TTITLE1=Time After Time
TTITLE2=You Go To My Head
TTITLE3=I'll Remember April
TTITLE4=Billie's Bounce
TTITLE5=Soon
TTITLE6=I Left My Heart In San Francisco
TTITLE7=Groovin' High
TTITLE8=My Secret Love
EXTD=YEAR: 2004
EXTT0=
EXTT1=
EXTT2=
EXTT3=
EXTT4=
EXTT5=
EXTT6=
EXTT7=
EXTT8=
PLAYORDER=
